HIERARCHY
ROOT Hips
{
	OFFSET 0.000000 0.000000 0.000000
	CHANNELS 6 Xposition Yposition Zposition Xrotation Yrotation Zrotation
	JOINT LeftUpLeg_virtual
	{
		OFFSET 0.000000 0.000000 0.000000
		CHANNELS 3 Xrotation Yrotation Zrotation
		JOINT LeftUpLeg
		{
			OFFSET 13.026900 -6.336304 -1.092800
			CHANNELS 3 Xrotation Yrotation Zrotation
			JOINT LeftLeg
			{
				OFFSET 0.524474 -46.096886 9.782700
				CHANNELS 3 Xrotation Yrotation Zrotation
				JOINT LeftFoot
				{
					OFFSET -0.524474 -53.427422 -12.948200
					CHANNELS 3 Xrotation Yrotation Zrotation
					JOINT LeftToeBase
					{
						OFFSET 0.192200 -14.009700 16.364100
						CHANNELS 3 Xrotation Yrotation Zrotation
						JOINT LeftToe_End
						{
							OFFSET -1.784700 -0.561700 9.474800
							CHANNELS 3 Xrotation Yrotation Zrotation
							End Site
							{
								OFFSET 0 0 0
							}
						}
					}
				}
			}
		}
	}
	JOINT RightUpLeg_virtual
	{
		OFFSET 0.000000 0.000000 0.000000
		CHANNELS 3 Xrotation Yrotation Zrotation
		JOINT RightUpLeg
		{
			OFFSET -12.883000 -6.336304 -1.092800
			CHANNELS 3 Xrotation Yrotation Zrotation
			JOINT RightLeg
			{
				OFFSET -0.524587 -46.096825 9.782800
				CHANNELS 3 Xrotation Yrotation Zrotation
				JOINT RightFoot
				{
					OFFSET 0.524587 -53.427383 -12.948300
					CHANNELS 3 Xrotation Yrotation Zrotation
					JOINT RightToeBase
					{
						OFFSET -0.192200 -14.009700 16.364100
						CHANNELS 3 Xrotation Yrotation Zrotation
						JOINT RightToe_End
						{
							OFFSET 1.784700 -0.561700 9.474800
							CHANNELS 3 Xrotation Yrotation Zrotation
							End Site
							{
								OFFSET 0 0 0
							}
						}
					}
				}
			}
		}
	}
	JOINT Spine_virtual
	{
		OFFSET 0.000000 0.000000 0.000000
		CHANNELS 3 Xrotation Yrotation Zrotation
		JOINT Spine
		{
			OFFSET 0.072000 7.257294 -0.789700
			CHANNELS 3 Xrotation Yrotation Zrotation
			JOINT Spine1
			{
				OFFSET 0.000000 12.508769 -0.658067
				CHANNELS 3 Xrotation Yrotation Zrotation
				JOINT Spine1_split
				{
					OFFSET 0.000000 12.508769 -0.658067
					CHANNELS 3 Xrotation Yrotation Zrotation
					JOINT Spine2
					{
						OFFSET 0.000000 12.508769 -0.658067
						CHANNELS 3 Xrotation Yrotation Zrotation
						JOINT Neck_virtual
						{
							OFFSET 0.000000 0.000000 0.000000
							CHANNELS 3 Xrotation Yrotation Zrotation
							JOINT Neck
							{
								OFFSET 0.000000 14.033295 7.520400
								CHANNELS 3 Xrotation Yrotation Zrotation
								JOINT Head
								{
									OFFSET 0.000000 8.198502 5.703100
									CHANNELS 3 Xrotation Yrotation Zrotation
									JOINT HeadTop_End
									{
										OFFSET 0.000000 17.760803 13.332701
										CHANNELS 3 Xrotation Yrotation Zrotation
										End Site
										{
											OFFSET 0 0 0
										}
									}
								}
							}
						}
						JOINT LeftShoulder_virtual
						{
							OFFSET 0.000000 0.000000 0.000000
							CHANNELS 3 Xrotation Yrotation Zrotation
							JOINT LeftShoulder
							{
								OFFSET 6.292450 5.785301 -0.669000
								CHANNELS 3 Xrotation Yrotation Zrotation
								JOINT LeftShoulder_split
								{
									OFFSET 6.292450 5.785301 -0.669000
									CHANNELS 3 Xrotation Yrotation Zrotation
									JOINT LeftArm
									{
										OFFSET 13.907140 -6.093903 1.965100
										CHANNELS 3 Xrotation Yrotation Zrotation
										JOINT LeftForeArm
										{
											OFFSET 34.140198 0.000000 0.000000
											CHANNELS 3 Xrotation Yrotation Zrotation
											JOINT LeftHand
											{
												OFFSET 40.960209 0.000000 0.000000
												CHANNELS 3 Xrotation Yrotation Zrotation
												End Site
												{
													OFFSET 0 0 0
												}
											}
										}
									}
								}
							}
						}
						JOINT RightShoulder_virtual
						{
							OFFSET 0.000000 0.000000 0.000000
							CHANNELS 3 Xrotation Yrotation Zrotation
							JOINT RightShoulder
							{
								OFFSET -6.292450 5.785301 -0.669000
								CHANNELS 3 Xrotation Yrotation Zrotation
								JOINT RightShoulder_split
								{
									OFFSET -6.292450 5.785301 -0.669000
									CHANNELS 3 Xrotation Yrotation Zrotation
									JOINT RightArm
									{
										OFFSET -13.907140 -6.093903 1.965100
										CHANNELS 3 Xrotation Yrotation Zrotation
										JOINT RightForeArm
										{
											OFFSET -34.140198 0.000000 0.000000
											CHANNELS 3 Xrotation Yrotation Zrotation
											JOINT RightHand
											{
												OFFSET -40.960209 0.000000 0.000000
												CHANNELS 3 Xrotation Yrotation Zrotation
												End Site
												{
													OFFSET 0 0 0
												}
											}
										}
									}
								}
							}
						}
					}
				}
			}
		}
	}
}
MOTION
Frames: 4
Frame Time: 0.03333333
55.515347 88.847145 267.057526 0.000000 0.000000 0.000000 -3.081039 20.894828 -13.362320 -6.921754 4.307191 -4.861464 70.066109 3.563524 0.264979 5.324565 2.403861 18.801588 -1.038814 -0.470489 -0.729368 0.000000 0.000000 0.000000 0.432353 23.549695 -14.064649 -49.596944 14.841241 5.923067 38.233387 0.427089 -3.404220 10.786253 5.590760 9.566592 -7.500624 -1.667682 -0.282124 0.000000 0.000000 0.000000 -1.085644 25.750517 -13.009251 3.084625 -10.143558 -2.510975 3.399400 -2.641409 1.248713 -0.266577 0.265721 -0.014063 0.000000 0.000000 0.000000 2.524394 -4.046196 2.220031 -1.810325 3.048052 0.765091 -10.323464 34.249342 4.856484 0.000000 0.000000 0.000000 1.682415 -3.116395 1.660909 -0.522349 -0.388468 -9.117332 1.983537 3.904995 0.123010 17.171471 -13.255206 -46.053251 36.918542 -85.777054 32.840270 0.000000 0.000000 0.000000 2.847283 -3.645494 1.737086 0.459502 -4.501329 8.092196 2.622275 8.479968 -1.614234 36.750629 11.248165 50.844458 179.902142 84.916737 177.584809 0.000000 0.000000 0.000000 
61.233154 85.471626 280.788788 0.000000 0.000000 0.000000 -5.202299 19.715225 -13.797867 -26.111122 7.535180 -3.672801 85.747622 4.219193 0.847147 3.575638 -0.271875 20.466626 -6.275874 -0.820488 0.384586 0.000000 0.000000 0.000000 -0.330584 26.353175 -15.263811 -39.527934 11.615187 5.811058 51.537049 -2.398359 -1.405614 -10.587216 3.033610 1.870791 -6.327442 -1.626692 0.319526 0.000000 0.000000 0.000000 -4.704333 27.041482 -12.949903 6.065356 -7.012627 -2.044697 3.881648 -1.061844 1.447233 -0.508157 0.875231 0.091329 0.000000 0.000000 0.000000 3.088877 -2.515083 2.478724 -2.986155 2.755032 0.756756 -10.072721 31.801928 4.683975 0.000000 0.000000 0.000000 2.636480 -1.454552 1.555335 -0.326324 0.182195 -9.698931 1.192211 2.125125 -1.841417 27.577089 -15.635481 -50.692141 13.594566 -71.603120 9.468055 0.000000 0.000000 0.000000 3.716330 -1.894035 1.738271 -0.000525 -2.936390 10.539562 2.745885 7.542994 -0.273757 22.793002 17.752360 52.109590 -127.683379 89.358668 124.620449 0.000000 0.000000 0.000000 
65.552101 83.352051 291.911072 0.000000 0.000000 0.000000 -6.288771 19.916758 -14.198537 -45.517450 9.826349 -1.390176 96.747321 4.981699 1.189196 1.336776 -2.688929 22.040160 -12.379092 -1.143410 1.004969 0.000000 0.000000 0.000000 -1.275927 29.272118 -15.746477 -33.020765 9.064739 5.072142 64.303417 -2.443868 0.454428 -25.684008 4.148350 -2.039929 -6.467536 -1.461487 0.691174 0.000000 0.000000 0.000000 -7.698969 28.064081 -12.934362 8.453208 -3.839582 -1.386390 4.432718 0.331779 1.527677 0.010009 1.420001 0.227164 0.000000 0.000000 0.000000 3.814914 -1.003600 2.539917 -3.377783 2.466179 0.839138 -9.683765 29.206719 4.741885 0.000000 0.000000 0.000000 3.516392 0.085083 1.550309 -0.172162 0.838799 -9.018540 0.038169 0.519006 -2.882089 34.371817 -17.611023 -54.493681 10.182145 -62.033663 6.990041 0.000000 0.000000 0.000000 4.601529 -0.335287 1.592527 -0.440905 -2.280910 11.942842 3.219789 6.020410 0.184782 8.112954 21.615056 54.823415 -92.126254 89.240240 89.273468 0.000000 0.000000 0.000000 
68.645203 82.246964 299.651184 0.000000 0.000000 0.000000 -5.784591 20.362092 -14.848845 -60.635551 9.719350 1.189010 102.257453 5.468195 1.007355 1.436625 -2.995085 22.502212 -14.748711 -1.017007 0.470817 0.000000 0.000000 0.000000 -2.129641 31.126538 -15.980353 -29.379420 7.736555 3.363313 71.566572 0.462223 0.703661 -31.792704 6.465738 -0.054154 -8.782746 -1.334360 0.747979 0.000000 0.000000 0.000000 -9.002206 28.502941 -13.512147 9.764511 -1.078807 -0.465416 4.947030 1.295691 1.476009 0.549598 1.973528 0.321359 0.000000 0.000000 0.000000 4.599490 0.193728 2.416354 -3.107343 2.135949 1.127695 -9.478893 27.068810 4.958208 0.000000 0.000000 0.000000 4.143432 1.289117 1.626601 -0.092835 1.364297 -7.641682 -0.901973 -0.816284 -2.217638 37.756220 -17.773120 -57.500583 7.568466 -59.480361 5.993383 0.000000 0.000000 0.000000 5.272284 0.752970 1.350342 -0.635570 -2.328671 12.088418 3.789978 4.455501 0.221486 -3.028785 22.612513 57.075957 -158.443573 87.824799 156.474825 0.000000 0.000000 0.000000 
